<svg width="258" height="164" viewBox="0 0 258 164" fill="none" xmlns="http://www.w3.org/2000/svg">
<g clip-path="url(#clip0_2_16)">
<path d="M182.938 35.6258C182.285 37.8726 181.707 39.8643 181.025 42.1995L188.117 42.6557C187.033 46.4283 186.087 49.9359 184.944 53.3798C184.851 53.6692 183.256 53.8703 182.688 53.5269C180.726 52.379 179.141 52.6733 177.636 54.253C176.395 55.5481 175.007 56.7059 173.859 58.0795C168.037 65.0359 169.886 72.0119 175.09 78.5022C175.654 79.2086 176.9 79.6452 177.866 79.709C186.695 80.2732 195.489 80.6902 204.298 81.2298C208.05 81.3923 211.785 81.8483 215.466 82.5936H133.655C133.944 81.1219 134.214 80.0573 134.366 78.9535C134.856 75.3135 135.504 71.6881 135.788 68.0333C136.583 57.7753 130.187 52.5752 121.388 50.7503C117.587 49.9604 113.589 50.0585 109.675 49.9604C103.956 49.8231 98.2325 49.985 92.5087 49.7838C90.395 49.6274 88.3108 49.1953 86.3091 48.4985C84.7346 48.0079 83.7095 47.797 82.7188 49.6121C81.419 52.0012 78.3045 53.0462 75.6755 52.4427C72.8161 51.7903 71.1141 50.1125 70.6776 47.537C71.7959 48.5525 72.767 49.8378 74.057 50.5442C76.7251 52.0159 80.0064 51.3046 81.6593 49.2393C83.4496 47.0072 83.3466 42.2289 81.3945 39.7858C79.9672 38.0001 78.2309 36.8424 75.7785 36.7541C74.4074 36.6726 73.0589 36.3677 71.7861 35.8514C69.5397 35.0027 67.7249 35.3314 65.9788 37.0337C64.2327 38.736 62.0256 40.1734 60.3384 42.0033C58.9601 43.4995 57.5966 45.2803 57.0178 47.1788C56.3214 49.4748 57.577 50.6129 60.0048 50.7306C66.7195 51.0201 69.2552 52.7911 71.3642 59.2471C72.247 62.0452 72.8484 64.9244 73.1594 67.842C73.5861 71.5311 74.7289 74.6365 78.0151 76.7312C78.8256 77.2759 79.4732 78.0304 79.8887 78.9143C80.9285 81.2053 80.1241 82.4612 77.6227 82.4759C62.3395 82.5773 47.0546 82.6558 31.7682 82.7114C21.5565 82.7114 11.3447 82.6378 1.12814 82.5887C0.898477 82.599 0.670467 82.5453 0.469544 82.4336C0.26862 82.3218 0.10268 82.1564 -0.00976562 81.9559C4.77237 81.5879 9.54961 81.1611 14.3318 80.857C20.86 80.4449 27.3882 80.0573 33.9214 79.8022C35.6871 79.7287 36.2217 79.2185 36.3394 77.4033C37.4184 60.9935 38.7918 44.5837 43.6965 28.792C45.6584 22.5175 48.0618 16.2234 51.3676 10.5818C57.4249 0.235507 65.7728 -2.35474 76.9459 2.08498C84.0725 4.91561 91.0323 8.21229 97.9431 11.5482C120.397 22.3851 143.729 30.3324 168.572 33.5604C173.246 34.1638 177.93 34.8948 182.938 35.6258ZM75.033 16.0027C75.1409 11.455 71.5359 7.56473 67.0922 7.43718C62.4425 7.29982 58.298 11.1803 58.2293 15.7427C58.1607 20.2216 62.0795 24.1855 66.6115 24.2296C71.4967 24.2689 74.93 20.9084 75.0428 15.9978L75.033 16.0027Z" fill="#900000"/>
<path d="M75.2883 133.064C84.6711 133.064 93.8921 133.064 103.118 133.03C103.662 133.03 104.589 132.637 104.687 132.255C105.639 128.821 106.448 125.352 107.41 121.462L78.4323 125.951C79.2857 123.586 80.0263 121.482 80.8111 119.387C82.2825 115.418 83.8815 111.474 85.2941 107.476C85.7845 106.004 86.3878 105.719 87.9622 106.092C96.7025 108.167 105.472 110.105 114.252 112.004C116.787 112.548 118.176 114.412 117.798 117.704C117.307 121.923 116.626 126.123 116.022 130.327C115.914 131.112 115.797 131.897 115.62 133.108H141.39C140.831 125.843 140.262 118.474 139.693 111.121C143.283 111.989 146.692 112.749 150.052 113.696C150.611 113.853 151.185 114.8 151.317 115.462C152.362 120.834 153.279 126.255 154.338 131.602C154.481 132.299 155.408 133.349 155.991 133.363C162.676 133.486 169.366 133.442 176.527 133.442C175.905 125.941 175.301 118.592 174.678 111.091C178.318 111.994 181.918 112.843 185.469 113.829C185.886 113.942 186.263 114.766 186.376 115.3C187.593 121.389 188.794 127.481 189.912 133.589C190.893 138.873 189.584 141.159 184.297 141.885C176.214 142.998 168.042 143.474 159.93 144.431C156.702 144.899 153.409 144.316 150.537 142.768C149.198 142.052 147.192 142.228 145.564 142.478C124.351 145.702 102.986 144.47 81.6743 144.735C80.2863 144.735 78.8933 144.735 77.5053 144.735C75.7543 144.735 73.8758 145.128 73.4245 142.469C73.3412 141.978 71.6245 141.384 70.7564 141.487C66.5137 142.086 62.3055 142.925 58.0825 143.661C57.44 143.769 56.7827 143.788 56.1206 143.842C45.0702 144.823 45.0603 144.823 36.8105 137.558C36.2044 136.953 35.8354 136.15 35.7707 135.296C35.6334 133.177 36.0405 130.989 35.6726 128.919C34.7898 123.989 36.9626 120.55 40.4106 117.454C42.1077 115.938 43.4516 114.02 45.1143 112.47C45.9298 111.701 46.9531 111.189 48.0571 110.998C54.9238 110.105 61.8444 109.325 68.7552 108.609C69.0989 108.638 69.4309 108.747 69.7241 108.929C70.0173 109.111 70.2635 109.359 70.4424 109.654C71.0752 110.871 71.3155 112.288 71.9139 113.52C74.7472 119 75.8617 125.208 75.1118 131.333C75.075 131.739 75.075 132.148 75.1118 132.554C75.1387 132.734 75.1985 132.907 75.2883 133.064ZM61.815 121.29C58.2002 122.026 54.9483 122.669 51.672 123.366C51.3237 123.444 50.8234 123.753 50.7548 124.038C50.0485 127.074 49.4109 130.131 48.6997 133.452C52.2605 133.452 55.3554 133.501 58.4454 133.403C58.9948 133.403 59.9169 132.814 60.0051 132.368C60.6771 128.816 61.197 125.22 61.815 121.3V121.29Z" fill="#900000"/>
<path d="M201.61 124.734C202.738 119.828 203.768 115.153 204.946 110.507C205.068 110.017 206.093 109.433 206.667 109.462C213.431 109.811 220.204 110.169 226.953 110.743C231.166 111.101 233.928 114.206 233.982 118.386C234.07 124.837 233.982 131.293 234.05 137.749C234.05 139.756 233.339 140.987 231.446 141.949C228.645 143.467 225.518 144.285 222.333 144.333C216.045 144.333 209.757 144.529 203.474 144.76C201.88 144.818 201.125 144.269 200.654 142.797C199.737 139.854 198.638 136.954 197.471 133.638L220.866 135.826C220.997 135.421 221.057 134.996 221.043 134.57C220.297 130.896 219.424 127.241 218.762 123.552C218.443 121.781 217.355 122.051 216.217 122.247C211.954 122.983 207.697 123.753 203.435 124.499C202.905 124.587 202.366 124.636 201.61 124.734Z" fill="#900000"/>
<path d="M221.504 68.9849C223.333 67.6849 224.937 66.6155 226.468 65.443C230.033 62.7105 231.618 59.1096 231.313 54.5914C231.049 50.7257 234.894 46.5165 238.886 46.9973C243.17 47.4536 247.365 48.5225 251.344 50.1713C256.44 52.3985 259.001 59.0017 257.632 64.2312C256.092 70.1182 251.035 74.499 244.929 74.0428C239.696 73.6552 234.541 72.1541 229.371 71.0454C226.84 70.5057 224.358 69.7404 221.504 68.9849ZM246.435 66.0071C247.661 65.9737 248.831 65.4816 249.713 64.6279C250.594 63.7742 251.124 62.6209 251.197 61.3957C251.197 59.1636 248.711 56.8775 246.293 56.9511C243.874 57.0247 241.726 59.0998 241.707 61.43C241.715 62.0416 241.844 62.6455 242.086 63.207C242.329 63.7685 242.68 64.2765 243.119 64.7019C243.559 65.1272 244.078 65.4615 244.647 65.6855C245.216 65.9095 245.823 66.0188 246.435 66.0071Z" fill="#900000"/>
<path d="M191.506 38.6428L218.438 43.9411C217.565 44.5494 217.197 44.9467 216.746 45.0939C213.087 46.2909 211.62 48.9351 211.841 52.6096C212.126 57.5889 209.806 61.2192 206.009 64.0842C205.485 64.4815 204.656 64.8691 204.077 64.7415C197.867 63.3826 191.678 61.9256 185.483 60.4784C185.346 60.4441 185.238 60.2773 185.272 60.3116L191.506 38.6428Z" fill="#900000"/>
<path d="M137.711 155.076C138.134 154.654 138.527 154.203 138.888 153.727C141.002 150.185 144.038 149.17 147.81 150.784C147.952 150.864 148.104 150.927 148.261 150.97C152.676 151.505 153.843 154.748 154.382 158.422C154.506 159.289 154.333 160.172 153.892 160.929C151.896 163.941 148.394 164.888 145.235 163.166C143.185 162.052 141.311 160.571 139.212 159.133C139.173 159.29 138.962 159.987 138.81 160.698C138.211 163.47 136.186 164.486 133.542 163.642C129.324 162.312 125.959 160.208 124.027 155.935C122.894 153.423 124.356 152.275 125.69 150.911C127.024 149.548 128.274 148.458 130.393 149.616C131.865 150.421 133.557 150.759 135.092 151.431C135.71 151.747 136.24 152.212 136.632 152.785C137.025 153.31 137.221 154.002 137.711 155.076Z" fill="#900000"/>
<path d="M53.4913 99.6314C53.3001 100.564 53.0941 101.496 52.9224 102.433C52.5546 104.459 51.0635 105.126 49.3321 104.989C44.0154 104.572 40.3074 101.339 38.9684 96.3249C38.3357 93.9554 39.5569 92.4444 41.097 91.0071C42.5292 89.6727 43.9369 90.2467 45.3593 91.0414C45.9144 91.3872 46.5154 91.6531 47.1446 91.8312C49.0722 92.258 50.9458 92.6505 51.657 94.9071C51.7453 95.1868 52.4565 95.2751 53.2559 95.6038C53.3246 92.9841 54.5851 91.9441 57.0032 91.3946C59.1809 90.904 60.9613 90.9629 62.8349 91.998C63.4528 92.3992 64.1479 92.6666 64.8753 92.7829C66.7342 92.9056 67.3914 93.9456 67.5582 95.6381C67.5937 96.4547 67.8169 97.2521 68.2105 97.9683C69.6133 100.102 68.8432 101.849 67.1119 103.061C65.2726 104.351 63.4823 106.102 60.7357 104.768C58.0822 103.487 55.2865 102.541 54.0701 99.3714L53.4913 99.6314Z" fill="#900000"/>
<path d="M207.702 65.3449C214.745 62.5584 216.428 57.1375 216.133 50.4755C216.035 48.1943 219.346 45.6482 222.294 45.3343C224.678 45.0841 227.11 45.2852 229.553 45.2852C229.514 45.9965 229.553 46.2664 229.489 46.2664C225.139 48.2287 223.603 51.5401 223.795 56.279C223.961 60.444 219.425 66.0906 215.614 67.3661C215.157 67.5244 214.666 67.5599 214.191 67.4691C212.229 67.0031 210.307 66.4585 208.364 65.9483L207.702 65.3449Z" fill="#900000"/>
<path d="M220.861 97.9094C220.92 102.673 217.952 104.778 213.386 103.639C208.972 102.54 207.133 99.2879 205.985 95.5007C205.151 92.7535 208.677 89.2507 211.483 89.8591C213.783 90.3496 216.049 91.0413 218.301 91.7478C219.826 92.2236 220.827 94.7845 220.861 97.9094Z" fill="#900000"/>
<path d="M184.223 156.146C184.399 160.502 180.172 163.092 176.096 161.792C171.917 160.458 170.494 157.156 168.979 153.806C167.91 151.451 171.814 147.311 174.477 147.948C176.773 148.498 179.352 148.866 181.148 150.2C182.83 151.456 183.644 153.87 184.841 155.773L184.223 156.146Z" fill="#900000"/>
<path d="M74.1064 46.8207C74.5969 44.5984 74.5086 42.5429 76.8237 42.4448C78.5649 42.3712 78.7022 43.9165 78.7856 45.2411C78.918 47.12 78.0548 48.3023 76.1419 48.1404C75.3768 48.0717 74.6705 47.2034 74.1064 46.8207Z" fill="#900000"/>
<path d="M80.325 72.8409C82.2231 74.8621 84.342 76.7361 85.9017 78.9928C86.3922 79.6894 85.3622 81.4457 85.0287 82.6966L84.396 82.5053C83.9594 80.7932 83.7976 78.9437 83.0128 77.4082C82.228 75.8727 80.8351 74.7199 79.7119 73.3953L80.325 72.8409Z" fill="#900000"/>
<path d="M99.2034 82.6623H93.9111L97.4327 77.0403C97.0943 78.6494 96.5205 79.7385 96.7951 80.5479C97.0698 81.3574 98.193 81.8283 99.2034 82.6623Z" fill="#900000"/>
</g>
<defs>
<clipPath id="clip0_2_16">
<rect width="258" height="164" fill="white"/>
</clipPath>
</defs>
</svg>
